<svg width="299" height="299" viewBox="0 0 299 299" fill="none" xmlns="http://www.w3.org/2000/svg">
<path d="M114.55 138.872C100.858 155.851 121.668 186.672 121.668 186.672C155.494 154.96 159.885 133.953 159.722 91.5368C159.722 91.5368 154.259 108.306 149.151 114.792C137.81 129.194 126.058 124.602 114.55 138.872Z" fill="white"/>
<path d="M181.06 158.28C189.267 138.071 166.261 94.857 166.261 94.857C166.425 137.274 162.033 158.28 128.207 189.992C128.207 189.992 168.332 189.62 181.06 158.28Z" fill="white"/>
<path fill-rule="evenodd" clip-rule="evenodd" d="M148 205.769C182.114 205.769 209.769 178.114 209.769 144C209.769 109.886 182.114 82.2308 148 82.2308C113.886 82.2308 86.2308 109.886 86.2308 144C86.2308 178.114 113.886 205.769 148 205.769ZM148 217C188.317 217 221 184.317 221 144C221 103.683 188.317 71 148 71C107.683 71 75 103.683 75 144C75 184.317 107.683 217 148 217Z" fill="white"/>
</svg>
