<svg width="299" height="299" viewBox="0 0 299 299" fill="none" xmlns="http://www.w3.org/2000/svg">
<path d="M146.711 196.064L146.011 158.62C146.011 158.62 137.115 153.426 137.115 139.117C137.115 139.117 136.484 117.657 139.893 117.655C143.302 117.654 140.589 139.117 143.302 139.117C146.014 139.117 143.302 117.655 146.711 117.655C150.12 117.655 146.31 139.117 150.12 139.117C153.931 139.117 150.16 117.655 153.529 117.655C156.898 117.655 153.529 139.117 156.938 139.117C160.347 139.117 156.938 117.654 160.347 117.655C163.757 117.657 162.441 139.117 162.441 139.117C162.441 153.426 154.208 158.62 154.208 158.62L154.909 196.064H146.711Z" fill="white"/>
<path fill-rule="evenodd" clip-rule="evenodd" d="M147.402 157.804L148.091 194.658H153.476L152.788 157.853L153.452 157.434L153.458 157.43L153.503 157.4C153.547 157.369 153.619 157.319 153.715 157.246C153.906 157.102 154.193 156.872 154.542 156.55C155.242 155.906 156.195 154.893 157.155 153.454C159.065 150.589 161.035 145.983 161.035 139.117V139.074L161.038 139.031L162.441 139.117C162.441 153.426 154.208 158.62 154.208 158.62L154.909 196.064H146.711L146.011 158.62C146.011 158.62 137.115 153.426 137.115 139.117L138.52 139.076L138.522 139.117C138.522 145.957 140.64 150.549 142.704 153.412C143.74 154.852 144.772 155.866 145.532 156.514C145.913 156.838 146.224 157.07 146.434 157.216C146.538 157.289 146.617 157.341 146.666 157.372L146.717 157.404L146.722 157.407L147.402 157.804ZM139.819 119.742C139.674 120.139 139.531 120.657 139.397 121.297C139 123.198 138.763 125.792 138.63 128.457C138.497 131.106 138.47 133.762 138.476 135.76C138.479 136.758 138.49 137.589 138.5 138.17C138.506 138.46 138.511 138.688 138.514 138.842L138.519 139.018L138.52 139.076L137.115 139.117C137.115 139.117 136.484 117.657 139.893 117.655C141.695 117.655 141.786 123.65 141.873 129.304C141.95 134.346 142.023 139.117 143.302 139.117C144.581 139.117 144.654 134.347 144.731 129.304C144.818 123.651 144.909 117.655 146.711 117.655C148.368 117.655 148.319 122.726 148.269 127.938C148.216 133.449 148.162 139.117 150.12 139.117C152.084 139.117 152.034 133.416 151.986 127.891C151.941 122.696 151.897 117.655 153.529 117.655C155.209 117.655 155.214 122.989 155.219 128.339C155.224 133.72 155.229 139.117 156.938 139.117C158.643 139.117 158.643 133.751 158.643 128.386C158.643 123.02 158.643 117.655 160.347 117.655C163.757 117.657 162.441 139.117 162.441 139.117L161.038 139.031L161.039 139.017L161.041 138.973L161.051 138.797C161.06 138.643 161.072 138.415 161.087 138.125C161.116 137.544 161.154 136.713 161.188 135.715C161.258 133.717 161.315 131.061 161.267 128.412C161.219 125.747 161.065 123.154 160.728 121.255C160.637 120.736 160.536 120.299 160.431 119.942C160.364 120.278 160.304 120.682 160.254 121.156C160.051 123.078 160.049 125.675 160.049 128.386V128.448C160.049 131.084 160.049 133.825 159.828 135.912C159.718 136.949 159.543 137.95 159.225 138.726C158.938 139.43 158.278 140.523 156.938 140.523C155.6 140.523 154.939 139.431 154.65 138.728C154.332 137.952 154.155 136.952 154.043 135.914C153.818 133.816 153.815 131.056 153.813 128.406L153.813 128.388C153.81 125.677 153.807 123.079 153.605 121.156C153.589 121.001 153.572 120.854 153.554 120.714C153.539 120.847 153.525 120.987 153.512 121.134C153.349 122.95 153.37 125.363 153.392 127.91C153.394 128.065 153.395 128.219 153.396 128.374C153.419 131.033 153.43 133.81 153.183 135.927C153.061 136.972 152.863 137.987 152.501 138.779C152.148 139.553 151.424 140.523 150.12 140.523C148.816 140.523 148.092 139.552 147.74 138.777C147.379 137.985 147.183 136.969 147.062 135.925C146.819 133.808 146.834 131.031 146.859 128.373C146.86 128.235 146.862 128.098 146.863 127.961C146.887 125.395 146.911 122.962 146.746 121.135C146.719 120.839 146.688 120.57 146.654 120.328C146.604 120.586 146.558 120.874 146.515 121.194C146.261 123.111 146.195 125.709 146.151 128.409C146.146 128.714 146.142 129.02 146.137 129.327C146.101 131.684 146.065 134.051 145.9 135.889C145.808 136.917 145.668 137.887 145.424 138.632C145.303 139 145.124 139.42 144.833 139.772C144.519 140.152 144.005 140.523 143.302 140.523C142.599 140.523 142.085 140.152 141.77 139.772C141.479 139.42 141.301 139 141.18 138.632C140.936 137.887 140.796 136.916 140.704 135.889C140.539 134.05 140.503 131.683 140.467 129.326C140.462 129.02 140.458 128.714 140.453 128.409C140.409 125.708 140.343 123.11 140.089 121.194C140.01 120.602 139.918 120.119 139.819 119.742Z" fill="white"/>
<path fill-rule="evenodd" clip-rule="evenodd" d="M93.7416 114.96C96.3215 86.356 124.587 71 150.971 71C178.523 71 205.453 85.596 207.714 115.034C208.199 121.348 206.24 127.091 203.523 132.164C200.834 137.184 197.157 141.983 193.77 146.367C193.646 146.528 193.522 146.689 193.398 146.849C190.039 151.196 186.972 155.165 184.668 159.167C182.303 163.277 181.037 166.942 181.037 170.444V197.431H118.13L118.13 170.444C118.13 166.923 116.93 163.219 114.731 159.079C112.621 155.108 109.83 151.155 106.786 146.843C106.627 146.618 106.467 146.391 106.307 146.164C103.181 141.735 99.8084 136.9 97.3699 131.874C94.9072 126.799 93.1861 121.118 93.7416 114.96ZM150.971 82.2485C127.572 82.2485 106.781 95.6113 104.945 115.97C104.638 119.369 105.537 122.939 107.49 126.964C109.467 131.039 112.304 135.153 115.498 139.679C115.696 139.96 115.896 140.243 116.097 140.528C119.026 144.674 122.207 149.176 124.664 153.801C127.311 158.783 129.378 164.363 129.378 170.444L129.378 186.183H169.789V170.444C169.789 164.2 172.046 158.547 174.919 153.556C177.616 148.87 181.115 144.345 184.326 140.191C184.508 139.957 184.689 139.723 184.868 139.49C188.342 134.994 191.431 130.916 193.607 126.853C195.756 122.842 196.76 119.293 196.499 115.896C194.88 94.8172 175.538 82.2485 150.971 82.2485Z" fill="white"/>
<path d="M118.364 204.387H181.397V211.589C181.397 214.695 178.879 217.213 175.772 217.213H123.988C120.882 217.213 118.364 214.695 118.364 211.589V204.387Z" fill="white"/>
</svg>
