<svg width="299" height="299" viewBox="0 0 299 299" fill="none" xmlns="http://www.w3.org/2000/svg">
<path fill-rule="evenodd" clip-rule="evenodd" d="M60.3838 86.9835C60.3838 77.9352 67.683 70.6 76.6871 70.6H223.417C232.421 70.6 239.72 77.9351 239.72 86.9835V196.857C239.72 205.906 232.421 213.241 223.417 213.241H76.6871C67.683 213.241 60.3838 205.906 60.3838 196.857V86.9835ZM82.1216 81.5223C76.1188 81.5223 71.2527 86.4124 71.2527 92.4447V191.396C71.2527 197.428 76.1188 202.318 82.1216 202.318H217.983C223.985 202.318 228.851 197.428 228.851 191.396V92.4447C228.851 86.4124 223.985 81.5223 217.983 81.5223H82.1216Z" fill="white"/>
<path d="M155.083 99.6016C155.083 96.6597 157.564 94.2748 160.625 94.2748H210.504C213.564 94.2748 216.046 96.6597 216.046 99.6016C216.046 102.544 213.564 104.928 210.504 104.928H160.625C157.564 104.928 155.083 102.544 155.083 99.6016Z" fill="white"/>
<path d="M155.083 128.011C155.083 125.069 157.564 122.685 160.625 122.685H210.504C213.564 122.685 216.046 125.069 216.046 128.011C216.046 130.953 213.564 133.338 210.504 133.338H160.625C157.564 133.338 155.083 130.953 155.083 128.011Z" fill="white"/>
<path d="M155.083 155.829C155.083 152.887 157.564 150.502 160.625 150.502H210.504C213.564 150.502 216.046 152.887 216.046 155.829C216.046 158.771 213.564 161.156 210.504 161.156H160.625C157.564 161.156 155.083 158.771 155.083 155.829Z" fill="white"/>
<path d="M84.0583 181.872C84.0583 178.93 86.5205 176.545 89.5578 176.545H210.546C213.583 176.545 216.045 178.93 216.045 181.872C216.045 184.813 213.583 187.198 210.546 187.198H89.5578C86.5205 187.198 84.0583 184.813 84.0583 181.872Z" fill="white"/>
<path fill-rule="evenodd" clip-rule="evenodd" d="M95.9697 131.926C95.9697 131.926 89.1268 128.848 87.0295 120.953C86.6499 119.525 86.4258 117.938 86.4258 116.183C86.4258 107.597 89.8332 99.0098 99.151 99.0098C108.695 99.0098 111.876 107.597 111.876 116.184C111.876 117.938 111.652 119.525 111.272 120.953C109.175 128.848 102.332 131.926 102.332 131.926V158.468C102.332 160.28 100.908 161.748 99.151 161.748C97.394 161.748 95.9697 160.28 95.9697 158.468V131.926Z" fill="white"/>
<path d="M130.415 158.53L129.938 131.787C129.938 131.787 123.157 127.631 123.157 116.182C123.157 116.182 122.676 99.0108 125.275 99.0098C127.874 99.0088 125.806 116.182 127.874 116.182C129.941 116.182 127.874 99.0098 130.472 99.0098C133.071 99.0098 130.166 116.182 133.071 116.182C135.976 116.182 133.102 99.0098 135.67 99.0098C138.238 99.0098 135.67 116.182 138.269 116.182C140.867 116.182 138.269 99.0084 140.867 99.0098C143.466 99.0111 142.464 116.182 142.464 116.182C142.464 127.631 136.188 131.787 136.188 131.787L136.662 158.408C136.695 160.242 135.287 161.748 133.539 161.748C131.836 161.748 130.447 160.317 130.415 158.53Z" fill="white"/>
<path fill-rule="evenodd" clip-rule="evenodd" d="M131.224 130.995L131.714 158.505C131.733 159.548 132.544 160.384 133.539 160.384C134.56 160.384 135.382 159.505 135.363 158.433L134.875 131.044L135.488 130.638L135.521 130.614C135.552 130.592 135.604 130.553 135.674 130.497C135.815 130.386 136.027 130.207 136.288 129.955C136.81 129.451 137.524 128.655 138.244 127.521C139.677 125.266 141.164 121.627 141.164 116.182V116.14L141.167 116.099L141.169 116.053L141.177 115.913C141.183 115.79 141.193 115.608 141.204 115.376C141.226 114.912 141.255 114.249 141.281 113.452C141.334 111.855 141.377 109.735 141.341 107.621C141.307 105.641 141.203 103.722 140.985 102.256C140.869 103.727 140.867 105.616 140.867 107.595V107.655C140.867 109.757 140.867 111.96 140.698 113.642C140.613 114.478 140.477 115.306 140.223 115.96C139.996 116.542 139.438 117.546 138.269 117.546C137.101 117.546 136.541 116.544 136.314 115.962C136.059 115.308 135.921 114.481 135.835 113.645C135.794 113.237 135.762 112.798 135.738 112.337C135.712 112.802 135.678 113.245 135.632 113.657C135.538 114.5 135.384 115.343 135.093 116.011C134.81 116.662 134.199 117.546 133.071 117.546C131.943 117.546 131.332 116.661 131.049 116.009C130.759 115.341 130.607 114.497 130.514 113.655C130.326 111.944 130.339 109.705 130.358 107.583C130.359 107.475 130.36 107.367 130.361 107.26C130.371 106.163 130.38 105.101 130.368 104.129C130.316 105.207 130.292 106.397 130.273 107.618C130.269 107.862 130.266 108.107 130.262 108.352C130.235 110.236 130.207 112.14 130.081 113.621C130.01 114.446 129.902 115.245 129.707 115.868C129.612 116.175 129.464 116.544 129.216 116.858C128.947 117.2 128.496 117.546 127.874 117.546C127.251 117.546 126.8 117.2 126.531 116.858C126.283 116.543 126.136 116.175 126.04 115.868C125.845 115.245 125.737 114.446 125.666 113.621C125.54 112.14 125.512 110.236 125.485 108.352C125.481 108.106 125.478 107.861 125.474 107.618C125.441 105.454 125.391 103.389 125.198 101.872C125.191 101.814 125.184 101.757 125.176 101.702C125.157 101.789 125.138 101.879 125.12 101.972C124.821 103.475 124.641 105.535 124.539 107.664C124.439 109.778 124.418 111.899 124.422 113.495C124.424 114.292 124.433 114.956 124.441 115.42C124.445 115.651 124.449 115.833 124.451 115.956L124.455 116.096L124.456 116.131L124.456 116.14L124.457 116.182C124.457 121.602 126.055 125.227 127.602 127.481C128.38 128.615 129.153 129.413 129.721 129.92C130.005 130.174 130.237 130.355 130.391 130.468C130.468 130.525 130.526 130.564 130.561 130.587L130.595 130.61C130.596 130.61 130.594 130.609 130.595 130.61L131.224 130.995ZM123.157 116.182C123.157 116.182 122.676 99.0108 125.275 99.0098C126.648 99.0092 126.718 103.806 126.784 108.33C126.824 111.083 126.863 113.736 127.193 115.142C127.193 115.141 127.194 115.144 127.193 115.142C127.347 115.795 127.565 116.182 127.874 116.182C128.183 116.182 128.399 115.799 128.553 115.146C128.553 115.148 128.553 115.145 128.553 115.146C128.883 113.74 128.923 111.084 128.963 108.33C129.029 103.807 129.099 99.0098 130.472 99.0098C131.736 99.0098 131.698 103.067 131.66 107.238C131.62 111.647 131.578 116.182 133.071 116.182C134.568 116.182 134.53 111.621 134.493 107.2C134.459 103.043 134.425 99.0098 135.67 99.0098C136.95 99.0098 136.954 103.278 136.958 107.558C136.962 111.864 136.965 116.182 138.269 116.182C139.568 116.182 139.568 111.889 139.568 107.595C139.568 103.302 139.568 99.0091 140.867 99.0098C143.466 99.0111 142.464 116.182 142.464 116.182C142.464 127.631 136.188 131.787 136.188 131.787L136.662 158.408C136.695 160.242 135.287 161.748 133.539 161.748C131.836 161.748 130.447 160.317 130.415 158.53L129.938 131.787C129.938 131.787 123.157 127.631 123.157 116.182Z" fill="white"/>
</svg>
