<svg width="299" height="299" viewBox="0 0 299 299" fill="none" xmlns="http://www.w3.org/2000/svg">
<path fill-rule="evenodd" clip-rule="evenodd" d="M173.643 102.526C157.619 86.501 131.796 86.4724 115.966 102.302C100.136 118.132 100.165 143.955 116.189 159.979C132.214 176.004 158.037 176.032 173.866 160.202C189.696 144.373 189.668 118.55 173.643 102.526ZM104.178 90.5145C126.59 68.1033 162.968 68.2747 185.431 90.7378C205.887 111.194 207.857 143.19 191.12 165.669L230.686 205.235C233.941 208.49 233.941 213.767 230.686 217.022C227.431 220.277 222.153 220.277 218.898 217.022L179.333 177.456C156.854 194.193 124.858 192.223 104.402 171.767C81.9386 149.304 81.7672 112.926 104.178 90.5145Z" fill="white"/>
</svg>
